<svg xmlns="http://www.w3.org/2000/svg" viewBox="0 0 53.67 53.67"><path d="M6.086 38.781v4.279a.903.903 0 0 1-.903.903H.903A.902.902 0 0 1 0 43.06v-4.279c0-.499.404-.903.903-.903h4.279c.499 0 .904.404.904.903zm-.904-7.946H.903a.903.903 0 0 0-.903.903v4.279c0 .499.404.903.903.903h4.279a.903.903 0 0 0 .903-.903v-4.279a.902.902 0 0 0-.903-.903zm0-7.043H.903a.903.903 0 0 0-.903.904v4.279c0 .499.404.903.903.903h4.279a.903.903 0 0 0 .903-.903v-4.279a.903.903 0 0 0-.903-.904zm0-7.042H.903a.903.903 0 0 0-.903.903v4.279c0 .499.404.903.903.903h4.279a.903.903 0 0 0 .903-.903v-4.279a.902.902 0 0 0-.903-.903zm0-7.043H.903A.903.903 0 0 0 0 10.61v4.279c0 .499.404.903.903.903h4.279a.903.903 0 0 0 .903-.903V10.61a.902.902 0 0 0-.903-.903zm9.517 28.171H10.42a.903.903 0 0 0-.903.903v4.279c0 .499.404.903.903.903h4.279a.903.903 0 0 0 .903-.903v-4.279a.902.902 0 0 0-.903-.903zm0-7.043H10.42a.903.903 0 0 0-.903.903v4.279c0 .499.404.903.903.903h4.279a.903.903 0 0 0 .903-.903v-4.279a.902.902 0 0 0-.903-.903zm0-7.043H10.42a.903.903 0 0 0-.903.903v4.279c0 .499.404.903.903.903h4.279a.903.903 0 0 0 .903-.903v-4.279a.903.903 0 0 0-.903-.903zm0-7.042H10.42a.903.903 0 0 0-.903.903v4.279c0 .499.404.903.903.903h4.279a.903.903 0 0 0 .903-.903v-4.279a.902.902 0 0 0-.903-.903zm9.517 21.128h-4.279a.903.903 0 0 0-.903.903v4.279c0 .499.404.903.903.903h4.279a.903.903 0 0 0 .903-.903v-4.279a.902.902 0 0 0-.903-.903zm0-7.043h-4.279a.903.903 0 0 0-.903.903v4.279c0 .499.404.903.903.903h4.279a.903.903 0 0 0 .903-.903v-4.279a.902.902 0 0 0-.903-.903zm9.517 7.043h-4.279a.903.903 0 0 0-.903.903v4.279c0 .499.404.903.903.903h4.279a.903.903 0 0 0 .903-.903v-4.279a.902.902 0 0 0-.903-.903zm0-7.043h-4.279a.903.903 0 0 0-.903.903v4.279c0 .499.404.903.903.903h4.279a.903.903 0 0 0 .903-.903v-4.279a.902.902 0 0 0-.903-.903zm0-7.043h-4.279a.903.903 0 0 0-.903.903v4.279c0 .499.404.903.903.903h4.279a.903.903 0 0 0 .903-.903v-4.279a.903.903 0 0 0-.903-.903zm9.517 14.086h-4.279a.903.903 0 0 0-.903.903v4.279c0 .499.404.903.903.903h4.279a.903.903 0 0 0 .903-.903v-4.279a.902.902 0 0 0-.903-.903zm0-7.043h-4.279a.903.903 0 0 0-.903.903v4.279c0 .499.404.903.903.903h4.279a.903.903 0 0 0 .903-.903v-4.279a.902.902 0 0 0-.903-.903zm0-7.043h-4.279a.903.903 0 0 0-.903.903v4.279c0 .499.404.903.903.903h4.279a.903.903 0 0 0 .903-.903v-4.279a.903.903 0 0 0-.903-.903zm0-7.042h-4.279a.903.903 0 0 0-.903.903v4.279c0 .499.404.903.903.903h4.279a.903.903 0 0 0 .903-.903v-4.279a.902.902 0 0 0-.903-.903zm0-7.043h-4.279a.903.903 0 0 0-.903.903v4.279c0 .499.404.903.903.903h4.279a.903.903 0 0 0 .903-.903V10.61a.902.902 0 0 0-.903-.903zm9.517 28.171h-4.279a.903.903 0 0 0-.903.903v4.279c0 .499.404.903.903.903h4.279a.903.903 0 0 0 .903-.903v-4.279a.903.903 0 0 0-.903-.903zm0-7.043h-4.279a.903.903 0 0 0-.903.903v4.279c0 .499.404.903.903.903h4.279a.903.903 0 0 0 .903-.903v-4.279a.903.903 0 0 0-.903-.903z"/></svg>